<svg xmlns="http://www.w3.org/2000/svg" viewBox="0 0 113.65 25.88"><defs><style>.cls-1,.cls-2{fill:#fff;}.cls-1{fill-rule:evenodd;}.cls-3{fill:none;stroke:#fff;stroke-miterlimit:10;stroke-width:0.4px;}</style></defs><g id="Capa_2" data-name="Capa 2"><g id="Capa_1-2" data-name="Capa 1"><path class="cls-1" d="M12.39,18a11.42,11.42,0,0,1-3.24-1,7.4,7.4,0,0,1-2.32-1.69A7,7,0,0,1,5.43,13,9,9,0,0,1,5,10V2.9a2.75,2.75,0,0,1,.85-2A2.92,2.92,0,0,1,7.91,0a2.83,2.83,0,0,1,2,.8,2.73,2.73,0,0,1,.89,2.05v7.33a3.38,3.38,0,0,0,.3,1.47,2.52,2.52,0,0,0,.86,1,3.28,3.28,0,0,0,1.39.56,6.13,6.13,0,0,0,.63,0,6.14,6.14,0,0,0,.62,0A3.31,3.31,0,0,0,16,12.71a2.6,2.6,0,0,0,.86-1.05,3.46,3.46,0,0,0,.3-1.48V2.85a2.75,2.75,0,0,1,.89-2,2.86,2.86,0,0,1,2-.8,2.79,2.79,0,0,1,2.08.85,2.57,2.57,0,0,1,.64.92,3,3,0,0,1,.23,1.13V10a9,9,0,0,1-.47,3,6.57,6.57,0,0,1-1.41,2.38,7.61,7.61,0,0,1-2.34,1.69,11.39,11.39,0,0,1-3.25,1,8.77,8.77,0,0,1-1.6.12A9.16,9.16,0,0,1,12.39,18Z"/><path class="cls-1" d="M28.46,11.81a1,1,0,0,1,.31-.76,1.07,1.07,0,0,1,.76-.31h1.61V9.14a1,1,0,0,1,.31-.76,1.06,1.06,0,0,1,.77-.32,1.1,1.1,0,0,1,.54.16,1.21,1.21,0,0,1,.39.39,1.09,1.09,0,0,1,.14.54v1.63h1.56A1.09,1.09,0,0,1,36,11.86a1.06,1.06,0,0,1-.31.75,1,1,0,0,1-.76.31H33.29v1.61a1,1,0,0,1-.33.78,1,1,0,0,1-.74.32,1,1,0,0,1-.76-.33,1.06,1.06,0,0,1-.31-.77V12.91H29.54a1,1,0,0,1-.77-.33A1,1,0,0,1,28.46,11.81Z"/><path class="cls-2" d="M37.59,10.45a6.69,6.69,0,0,0-.83-2.31c-.07-.13-.15-.25-.23-.37A6.37,6.37,0,0,1,37.6,9.11a6.72,6.72,0,0,1-2.44,9.15,6.8,6.8,0,0,1-6.1.51,16,16,0,0,1-13.12,7.1A15.65,15.65,0,0,1,0,13a15.46,15.46,0,0,0,14.56,10.7,15.07,15.07,0,0,0,12.33-6.34A6.85,6.85,0,0,1,26,16.13a6.46,6.46,0,0,1-.72-1.78c.05.1.1.2.16.3s.17.27.26.4a6.5,6.5,0,0,0,12-3.44A6.41,6.41,0,0,0,37.59,10.45Z"/><path class="cls-1" d="M75.39,14a2.23,2.23,0,0,0-.41-.66,2,2,0,0,0-.62-.45,1.7,1.7,0,0,0-.74-.16,1.42,1.42,0,0,0-.87.25,1.9,1.9,0,0,0-.54.56V10.64a.25.25,0,0,0-.14-.22.54.54,0,0,0-.31-.09.53.53,0,0,0-.32.09.26.26,0,0,0-.13.22v6.9a.31.31,0,0,0,.13.22.47.47,0,0,0,.32.1.43.43,0,0,0,.29-.1.31.31,0,0,0,.11-.22v-.43a1.58,1.58,0,0,0,.57.58,1.68,1.68,0,0,0,.92.26,1.65,1.65,0,0,0,.72-.17,2,2,0,0,0,.6-.47,2.48,2.48,0,0,0,.42-.66,2.17,2.17,0,0,0,.15-.79v-1.1A2.09,2.09,0,0,0,75.39,14Zm-.74,1.89a1.07,1.07,0,0,1-.1.47,1.36,1.36,0,0,1-.26.41,1.24,1.24,0,0,1-.39.29,1,1,0,0,1-.47.11A1.13,1.13,0,0,1,73,17a1.62,1.62,0,0,1-.39-.28,1.26,1.26,0,0,1-.26-.32.68.68,0,0,1-.09-.28V14.76a1.1,1.1,0,0,1,.11-.52,1.28,1.28,0,0,1,.27-.4,1.14,1.14,0,0,1,.39-.25,1.12,1.12,0,0,1,.44-.09,1.06,1.06,0,0,1,.48.11,1.24,1.24,0,0,1,.39.29,1.31,1.31,0,0,1,.26.4,1.09,1.09,0,0,1,.1.46Z"/><path class="cls-1" d="M79.83,15.57l.36,0a.67.67,0,0,0,.31-.1.65.65,0,0,0,.21-.27,1.34,1.34,0,0,0,.08-.5,1.77,1.77,0,0,0-.17-.8,2,2,0,0,0-.45-.63,2.23,2.23,0,0,0-.66-.41,2.29,2.29,0,0,0-.78-.14,2.13,2.13,0,0,0-.84.16,2.1,2.1,0,0,0-.68.44,2,2,0,0,0-.46.65,1.92,1.92,0,0,0-.17.78v1.13a2,2,0,0,0,.18.86,1.86,1.86,0,0,0,.5.65,2.13,2.13,0,0,0,.75.43A2.93,2.93,0,0,0,79,18a3.08,3.08,0,0,0,.71-.08,2.79,2.79,0,0,0,.54-.2,1.14,1.14,0,0,0,.33-.25.37.37,0,0,0,.12-.24.45.45,0,0,0-.1-.26.31.31,0,0,0-.26-.15.4.4,0,0,0-.2.07l-.25.14a1.42,1.42,0,0,1-.35.15,1.83,1.83,0,0,1-.51.06,1.65,1.65,0,0,1-1.1-.35,1.17,1.17,0,0,1-.42-.95v-.32Zm-2.35-1a1.07,1.07,0,0,1,.36-.83,1.28,1.28,0,0,1,.4-.25,1.19,1.19,0,0,1,.47-.09,1.18,1.18,0,0,1,.5.1,1.36,1.36,0,0,1,.39.27,1.3,1.3,0,0,1,.25.39,1.17,1.17,0,0,1,.09.45c0,.15,0,.24-.1.28a.65.65,0,0,1-.37.07h-2Z"/><path class="cls-1" d="M82.81,16.24a.89.89,0,0,0,.19.65,1,1,0,0,0,.7.19H84a.38.38,0,0,1,.28.11.39.39,0,0,1,.1.27.42.42,0,0,1-.1.28.35.35,0,0,1-.28.12H83.7a2,2,0,0,1-1.33-.39,1.53,1.53,0,0,1-.45-1.23V10.7a.25.25,0,0,1,.14-.23.58.58,0,0,1,.3-.09.56.56,0,0,1,.31.09.27.27,0,0,1,.14.23v2.06h1.35a.24.24,0,0,1,.2.11.41.41,0,0,1,.07.25.4.4,0,0,1-.07.24.23.23,0,0,1-.2.1H82.81Z"/><path class="cls-1" d="M86.28,16.24a.89.89,0,0,0,.19.65,1,1,0,0,0,.7.19h.34a.38.38,0,0,1,.28.11.39.39,0,0,1,.1.27.42.42,0,0,1-.1.28.35.35,0,0,1-.28.12h-.34a2,2,0,0,1-1.33-.39,1.53,1.53,0,0,1-.45-1.23V10.7a.25.25,0,0,1,.14-.23.58.58,0,0,1,.3-.09.56.56,0,0,1,.31.09.27.27,0,0,1,.14.23v2.06h1.36a.24.24,0,0,1,.19.11.41.41,0,0,1,.07.25.4.4,0,0,1-.07.24.23.23,0,0,1-.19.1H86.28Z"/><path class="cls-1" d="M91.93,15.57l.36,0a.67.67,0,0,0,.31-.1.58.58,0,0,0,.21-.27,1.16,1.16,0,0,0,.08-.5,1.91,1.91,0,0,0-.16-.8,2,2,0,0,0-1.12-1,2.29,2.29,0,0,0-.78-.14,2.13,2.13,0,0,0-.84.16,2.1,2.1,0,0,0-.68.44,2.13,2.13,0,0,0-.46.65,1.91,1.91,0,0,0-.16.78v1.13a1.86,1.86,0,0,0,.67,1.51,2.13,2.13,0,0,0,.75.43,2.93,2.93,0,0,0,1,.15,3.08,3.08,0,0,0,.71-.08,2.79,2.79,0,0,0,.54-.2,1.36,1.36,0,0,0,.34-.25.4.4,0,0,0,.11-.24.45.45,0,0,0-.1-.26.3.3,0,0,0-.26-.15.4.4,0,0,0-.2.07L92,17a1.42,1.42,0,0,1-.35.15,1.75,1.75,0,0,1-.5.06A1.66,1.66,0,0,1,90,16.84a1.17,1.17,0,0,1-.42-.95v-.32Zm-2.35-1a1.07,1.07,0,0,1,.36-.83,1.28,1.28,0,0,1,.4-.25,1.21,1.21,0,0,1,.48-.09,1.16,1.16,0,0,1,.49.1,1.36,1.36,0,0,1,.39.27,1.14,1.14,0,0,1,.25.39,1.17,1.17,0,0,1,.09.45c0,.15,0,.24-.09.28a.68.68,0,0,1-.38.07h-2Z"/><path class="cls-1" d="M96.3,13.5a1.34,1.34,0,0,0-.51.11,1.31,1.31,0,0,0-.43.31,1.69,1.69,0,0,0-.31.5,1.78,1.78,0,0,0-.12.67v2.45a.28.28,0,0,1-.13.22.51.51,0,0,1-.32.1.47.47,0,0,1-.32-.1.29.29,0,0,1-.12-.22V13.07a.26.26,0,0,1,.12-.22.53.53,0,0,1,.32-.09.48.48,0,0,1,.29.09.26.26,0,0,1,.12.22v.51a1.92,1.92,0,0,1,.54-.61,1.41,1.41,0,0,1,.87-.27h.36a.32.32,0,0,1,.25.12.48.48,0,0,1,.1.29.48.48,0,0,1-.1.28.34.34,0,0,1-.25.11Z"/><path class="cls-1" d="M99.3,17.23a1.15,1.15,0,0,0,.8-.21.68.68,0,0,0,0-1,1.43,1.43,0,0,0-.48-.29,5.35,5.35,0,0,0-.64-.2,2.94,2.94,0,0,1-.63-.24,1.51,1.51,0,0,1-.49-.41,1.15,1.15,0,0,1-.19-.71,1.6,1.6,0,0,1,.09-.53,1.25,1.25,0,0,1,.3-.49,1.58,1.58,0,0,1,.55-.35,2.24,2.24,0,0,1,.82-.13,2.65,2.65,0,0,1,.56.05,3.19,3.19,0,0,1,.49.12,1.52,1.52,0,0,1,.34.19.29.29,0,0,1,.13.22.39.39,0,0,1,0,.13,1,1,0,0,1-.07.15.32.32,0,0,1-.11.12.3.3,0,0,1-.15.05.45.45,0,0,1-.17-.05l-.24-.11a2,2,0,0,0-.32-.1,1.34,1.34,0,0,0-.42-.05,1.18,1.18,0,0,0-.45.07.85.85,0,0,0-.31.18.76.76,0,0,0-.16.25.61.61,0,0,0-.06.25.48.48,0,0,0,.2.42,2,2,0,0,0,.49.24l.63.19a2.39,2.39,0,0,1,.64.26,1.53,1.53,0,0,1,.49.46,1.33,1.33,0,0,1,.19.77,1.3,1.3,0,0,1-.46,1,2,2,0,0,1-1.34.39,3.22,3.22,0,0,1-.71-.08,2.62,2.62,0,0,1-.56-.19,1.34,1.34,0,0,1-.36-.26.44.44,0,0,1-.13-.29.56.56,0,0,1,.08-.26.27.27,0,0,1,.23-.15.29.29,0,0,1,.19.08,1.46,1.46,0,0,0,.26.17,2.74,2.74,0,0,0,.38.18A2,2,0,0,0,99.3,17.23Z"/><path class="cls-1" d="M106.18,14a2.18,2.18,0,0,0-.46-.66,2.24,2.24,0,0,0-.68-.45,2.07,2.07,0,0,0-.82-.16,2,2,0,0,0-.82.16,2.28,2.28,0,0,0-.67.46,2,2,0,0,0-.46.66,1.92,1.92,0,0,0-.17.78v1.1a2,2,0,0,0,.17.79,2.21,2.21,0,0,0,.47.66,2.25,2.25,0,0,0,.67.47,2,2,0,0,0,.81.17,2.08,2.08,0,0,0,.82-.17,2.3,2.3,0,0,0,.68-.47,2.18,2.18,0,0,0,.46-.66,1.84,1.84,0,0,0,.17-.79v-1.1A1.78,1.78,0,0,0,106.18,14Zm-.72,1.89a1.15,1.15,0,0,1-.1.48,1.33,1.33,0,0,1-.66.69,1.1,1.1,0,0,1-1,0,1.29,1.29,0,0,1-.38-.28,1.39,1.39,0,0,1-.27-.41,1.32,1.32,0,0,1-.09-.48v-1.1a1.25,1.25,0,0,1,.09-.46,1.53,1.53,0,0,1,.26-.4,1.24,1.24,0,0,1,.39-.29,1.13,1.13,0,0,1,.48-.11,1.17,1.17,0,0,1,.49.11,1.24,1.24,0,0,1,.39.29,1.31,1.31,0,0,1,.26.4,1.09,1.09,0,0,1,.1.46Z"/><path class="cls-1" d="M108.5,12.89H110a.24.24,0,0,1,.2.11.41.41,0,0,1,.08.25.41.41,0,0,1-.08.24.23.23,0,0,1-.2.1H108.5v4a.26.26,0,0,1-.14.23.66.66,0,0,1-.32.08.62.62,0,0,1-.31-.08.28.28,0,0,1-.12-.23V12.47a2,2,0,0,1,1.17-1.86,1.83,1.83,0,0,1,.73-.15h.38a.32.32,0,0,1,.27.12.42.42,0,0,1,.1.28.39.39,0,0,1-.1.27.34.34,0,0,1-.27.11h-.23a1.06,1.06,0,0,0-.46.1,1.13,1.13,0,0,0-.36.24,1.34,1.34,0,0,0-.25.37,1.13,1.13,0,0,0-.09.45Z"/><path class="cls-1" d="M112,16.24a.89.89,0,0,0,.19.65,1,1,0,0,0,.7.19h.33a.38.38,0,0,1,.29.11.39.39,0,0,1,.1.27.42.42,0,0,1-.1.28.36.36,0,0,1-.29.12h-.33a2,2,0,0,1-1.33-.39,1.53,1.53,0,0,1-.46-1.23V10.7a.26.26,0,0,1,.15-.23.55.55,0,0,1,.29-.09.59.59,0,0,1,.32.09.27.27,0,0,1,.14.23v2.06h1.35a.24.24,0,0,1,.2.11.41.41,0,0,1,.07.25.4.4,0,0,1-.07.24.23.23,0,0,1-.2.1H112Z"/><path class="cls-2" d="M61.08,10.67a5,5,0,1,1,1.51,8.2l3.35-3.23A1.89,1.89,0,0,0,66,13l0-.05a1.87,1.87,0,0,0-2.65,0l-3.37,3.25A5,5,0,0,1,61.08,10.67Z"/><path class="cls-1" d="M65.49,15a1.16,1.16,0,0,0,.26-.39,1.52,1.52,0,0,0,.1-.47,1.31,1.31,0,0,0-.08-.48,1.06,1.06,0,0,0-.26-.41,1.12,1.12,0,0,0-.38-.26,1.14,1.14,0,0,0-.45-.1,1.35,1.35,0,0,0-.47.09,1.27,1.27,0,0,0-.45.3l-1,1a.62.62,0,0,0-.13.26,1.32,1.32,0,0,0,0,.41,1.55,1.55,0,0,0,.08.47,1.16,1.16,0,0,0,.27.43,1,1,0,0,0,.4.25,1.33,1.33,0,0,0,.48.07,1.52,1.52,0,0,0,.48-.1,1.23,1.23,0,0,0,.4-.27Z"/><path class="cls-2" d="M62.06,5.49a.86.86,0,0,1-.2.13,1.13,1.13,0,0,1-.24.08,1.39,1.39,0,0,1-.3,0,1.18,1.18,0,0,1-.46-.09,1,1,0,0,1-.36-.25A1,1,0,0,1,60.25,5a1.44,1.44,0,0,1-.08-.46h0a1.33,1.33,0,0,1,.08-.45,1.05,1.05,0,0,1,.25-.37,1,1,0,0,1,.36-.25,1.12,1.12,0,0,1,.48-.1,1.36,1.36,0,0,1,.29,0l.23.07.2.11.17.14-.32.36a1.41,1.41,0,0,0-.27-.18.6.6,0,0,0-.3-.07.63.63,0,0,0-.27.06.48.48,0,0,0-.2.15.55.55,0,0,0-.14.22.76.76,0,0,0,0,.27h0a.86.86,0,0,0,0,.27.55.55,0,0,0,.14.22.53.53,0,0,0,.2.16.76.76,0,0,0,.27,0,.66.66,0,0,0,.32-.07A1.11,1.11,0,0,0,61.93,5l.31.32A1.29,1.29,0,0,1,62.06,5.49Z"/><path class="cls-2" d="M64.84,5a1.34,1.34,0,0,1-.25.37,1.25,1.25,0,0,1-.38.25,1.32,1.32,0,0,1-1,0,1.25,1.25,0,0,1-.38-.25A1,1,0,0,1,62.63,5a1.13,1.13,0,0,1-.09-.45h0a1.13,1.13,0,0,1,.09-.45,1.05,1.05,0,0,1,.25-.37,1,1,0,0,1,.38-.25,1.06,1.06,0,0,1,.48-.1,1,1,0,0,1,.47.1,1.23,1.23,0,0,1,.38.24,1.15,1.15,0,0,1,.25.37,1.13,1.13,0,0,1,.09.45h0A1.13,1.13,0,0,1,64.84,5Zm-.43-.45a.87.87,0,0,0,0-.28.64.64,0,0,0-.14-.22A.48.48,0,0,0,64,3.92a.6.6,0,0,0-.27-.06.67.67,0,0,0-.28.06.51.51,0,0,0-.21.15.69.69,0,0,0-.14.22.76.76,0,0,0-.05.27h0a.86.86,0,0,0,.05.27.57.57,0,0,0,.15.22.65.65,0,0,0,.21.16.78.78,0,0,0,.28,0,.86.86,0,0,0,.27,0,.8.8,0,0,0,.21-.15.68.68,0,0,0,.14-.23.76.76,0,0,0,0-.27Z"/><path class="cls-2" d="M66.94,5.69,65.85,4.26V5.69h-.48V3.44h.45l1.06,1.39V3.44h.48V5.69Z"/><path class="cls-2" d="M69.88,3.9V5.69h-.49V3.9h-.68V3.44h1.86V3.9Z"/><path class="cls-2" d="M71,5.69V3.44h1.69v.44h-1.2v.46h1v.44h-1v.47h1.22v.44Z"/><path class="cls-2" d="M74.89,5.49a.86.86,0,0,1-.2.13,1,1,0,0,1-.24.08,1.39,1.39,0,0,1-.3,0,1.18,1.18,0,0,1-.46-.09,1,1,0,0,1-.36-.25A.88.88,0,0,1,73.09,5,1.22,1.22,0,0,1,73,4.57h0a1.13,1.13,0,0,1,.09-.45.91.91,0,0,1,.24-.37,1,1,0,0,1,.37-.25,1,1,0,0,1,.47-.1,1.29,1.29,0,0,1,.29,0l.23.07.2.11.17.14-.32.36a1.16,1.16,0,0,0-.27-.18.6.6,0,0,0-.3-.07.55.55,0,0,0-.26.06.51.51,0,0,0-.21.15.69.69,0,0,0-.14.22.77.77,0,0,0,0,.27h0a.84.84,0,0,0,0,.27.69.69,0,0,0,.14.22.53.53,0,0,0,.2.16.76.76,0,0,0,.27,0,.63.63,0,0,0,.32-.07A1.11,1.11,0,0,0,74.76,5l.31.32A.69.69,0,0,1,74.89,5.49Z"/><path class="cls-2" d="M77,5.69,76,4.26V5.69h-.49V3.44h.45L77,4.83V3.44h.49V5.69Z"/><path class="cls-2" d="M80.2,5a1.31,1.31,0,0,1-.24.37,1.39,1.39,0,0,1-.38.25,1.28,1.28,0,0,1-.48.09,1.21,1.21,0,0,1-.48-.09,1.25,1.25,0,0,1-.38-.25A1.05,1.05,0,0,1,78,5a1.12,1.12,0,0,1-.08-.45h0A1.13,1.13,0,0,1,78,4.12a1.18,1.18,0,0,1,.24-.37,1.19,1.19,0,0,1,.38-.25,1.12,1.12,0,0,1,.48-.1,1.06,1.06,0,0,1,.48.1,1.23,1.23,0,0,1,.38.24,1.34,1.34,0,0,1,.25.37,1.33,1.33,0,0,1,.08.45h0A1.13,1.13,0,0,1,80.2,5Zm-.42-.45a.87.87,0,0,0,0-.28.83.83,0,0,0-.14-.22.54.54,0,0,0-.22-.15.63.63,0,0,0-.27-.06.64.64,0,0,0-.28.06.51.51,0,0,0-.21.15.69.69,0,0,0-.14.22.76.76,0,0,0,0,.27h0a.86.86,0,0,0,0,.27.71.71,0,0,0,.36.38.76.76,0,0,0,.27,0,.87.87,0,0,0,.28,0,.8.8,0,0,0,.21-.15.88.88,0,0,0,.14-.23.76.76,0,0,0,0-.27Z"/><path class="cls-2" d="M80.73,5.69V3.44h.5v1.8h1.12v.45Z"/><path class="cls-2" d="M84.92,5a1.15,1.15,0,0,1-.63.62,1.21,1.21,0,0,1-.48.09,1.28,1.28,0,0,1-.48-.09A1.21,1.21,0,0,1,83,5.39,1.05,1.05,0,0,1,82.71,5a1.13,1.13,0,0,1-.09-.45h0a1.13,1.13,0,0,1,.09-.45A1.05,1.05,0,0,1,83,3.75a1.09,1.09,0,0,1,.38-.25,1.2,1.2,0,0,1,1,0,1.36,1.36,0,0,1,.38.24,1.31,1.31,0,0,1,.24.37,1.13,1.13,0,0,1,.09.45h0A1.13,1.13,0,0,1,84.92,5Zm-.43-.45a.66.66,0,0,0,0-.28.64.64,0,0,0-.14-.22.51.51,0,0,0-.21-.15.67.67,0,0,0-.28-.06.6.6,0,0,0-.27.06.51.51,0,0,0-.21.15.55.55,0,0,0-.14.22.76.76,0,0,0,0,.27h0a.86.86,0,0,0,0,.27.55.55,0,0,0,.14.22.6.6,0,0,0,.22.16.75.75,0,0,0,.54,0,.71.71,0,0,0,.22-.15.65.65,0,0,0,.13-.23.59.59,0,0,0,0-.27Z"/><path class="cls-2" d="M87.08,5.62a1.35,1.35,0,0,1-.55.11,1.28,1.28,0,0,1-.48-.09,1.18,1.18,0,0,1-.37-.24A1.13,1.13,0,0,1,85.44,5a1.23,1.23,0,0,1-.09-.47h0a1.13,1.13,0,0,1,.09-.45,1.05,1.05,0,0,1,.25-.37,1,1,0,0,1,.37-.25,1,1,0,0,1,.47-.1,1.12,1.12,0,0,1,.27,0l.23,0,.2.1a.83.83,0,0,1,.18.13l-.31.38L87,4l-.13-.07-.15,0-.18,0a.54.54,0,0,0-.25.06.48.48,0,0,0-.2.15.64.64,0,0,0-.14.22.81.81,0,0,0,0,.27h0a.82.82,0,0,0,0,.28.59.59,0,0,0,.14.23.8.8,0,0,0,.21.15.66.66,0,0,0,.28,0A.81.81,0,0,0,87,5.15V4.82h-.5V4.4h1v1A1.29,1.29,0,0,1,87.08,5.62Z"/><path class="cls-2" d="M88,5.69V3.44h.5V5.69ZM88,3.27l.36-.57.42.18-.41.39Z"/><path class="cls-2" d="M90.72,5.69l-.21-.5h-1l-.2.5h-.51l1-2.26h.45l1,2.26ZM90,4l-.3.73h.6Z"/><line class="cls-3" x1="48.79" y1="3.71" x2="48.79" y2="22.17"/></g></g></svg>