<?xml version="1.0" encoding="UTF-8"?>
<svg id="Capa_1" xmlns="http://www.w3.org/2000/svg" version="1.1" viewBox="0 0 350 86">
  <!-- Generator: Adobe Illustrator 29.5.0, SVG Export Plug-In . SVG Version: 2.1.0 Build 137)  -->
  <defs>
    <style>
      .st0 {
        fill: #1d1d1b;
      }

      .st1, .st2, .st3 {
        fill: #fcc52d;
      }

      .st4 {
        fill: #224d5b;
      }

      .st4, .st2, .st3 {
        fill-rule: evenodd;
      }

      .st2 {
        stroke: #c09219;
        stroke-miterlimit: 3.86;
      }
    </style>
  </defs>
  <g>
    <path class="st0" d="M164.1,35.7c0,1.91-.52,3.4-1.57,4.46-1.05,1.06-2.51,1.59-4.39,1.59s-3.35-.53-4.39-1.59c-1.05-1.06-1.57-2.55-1.57-4.46v-8.7h.89v8.7c0,1.64.45,2.92,1.34,3.83.89.91,2.14,1.36,3.74,1.36s2.85-.45,3.74-1.36c.89-.91,1.34-2.18,1.34-3.83v-8.7h.89v8.7Z"/>
    <path class="st0" d="M180.12,41.73h-1.03l-9.82-13.38v13.38h-.89v-14.73h1.03l9.84,13.38v-13.38h.86v14.73Z"/>
    <path class="st0" d="M185.64,41.73h-.89v-14.73h.89v14.73Z"/>
    <path class="st0" d="M194.96,41.73h-.93l-6.11-14.73h.99l5.59,13.68,5.61-13.68h.97l-6.11,14.73Z"/>
    <path class="st0" d="M212.85,27.86h-8.62v5.88h7.67v.89h-7.67v6.24h8.89v.86h-9.78v-14.73h9.51v.86Z"/>
    <path class="st0" d="M226.49,41.73l-3.48-4.99c-.35.06-.77.08-1.24.08h-4.32v4.91h-.89v-14.73h5.21c1.83,0,3.24.42,4.23,1.26.99.84,1.49,2.04,1.49,3.58,0,1.24-.31,2.26-.94,3.08-.63.82-1.52,1.37-2.69,1.67l3.69,5.14h-1.05ZM221.79,35.95c1.55,0,2.74-.35,3.57-1.05.84-.7,1.25-1.71,1.25-3.03s-.42-2.28-1.25-2.97c-.84-.69-2.03-1.03-3.57-1.03h-4.34v8.09h4.34Z"/>
    <path class="st0" d="M237.53,27.28c.75.22,1.41.51,1.97.87l-.4.8c-.53-.35-1.15-.62-1.83-.8-.69-.18-1.36-.27-2.02-.27-1.17,0-2.1.22-2.8.67-.7.45-1.05,1.06-1.05,1.83,0,.66.18,1.2.54,1.61.36.41.8.74,1.32.97.52.23,1.24.49,2.15.77,1.01.31,1.82.6,2.43.89.61.28,1.13.69,1.55,1.22.42.53.63,1.24.63,2.11,0,.76-.21,1.43-.63,2-.42.58-1.02,1.02-1.79,1.33-.77.31-1.67.46-2.7.46-.97,0-1.92-.19-2.86-.58-.93-.39-1.73-.9-2.39-1.55l.46-.78c.59.62,1.32,1.11,2.19,1.46.87.36,1.74.54,2.61.54,1.28,0,2.29-.26,3.03-.78.74-.52,1.12-1.22,1.12-2.09,0-.69-.18-1.24-.55-1.66-.37-.42-.81-.75-1.34-.98-.53-.23-1.25-.49-2.18-.77-1-.31-1.8-.6-2.4-.86-.6-.27-1.11-.66-1.53-1.18-.41-.52-.62-1.21-.62-2.07,0-.7.2-1.32.6-1.84.4-.53.97-.93,1.71-1.22.74-.29,1.58-.43,2.54-.43.74,0,1.49.11,2.24.33Z"/>
    <path class="st0" d="M244.45,41.73h-.89v-14.73h.89v14.73Z"/>
    <path class="st0" d="M258.75,27.98c1.16.65,2.08,1.55,2.75,2.68.67,1.13,1.01,2.37,1.01,3.72s-.34,2.57-1.01,3.7c-.67,1.13-1.6,2.02-2.76,2.68-1.17.65-2.44.98-3.81.98h-5.84v-14.73h5.86c1.38,0,2.65.33,3.8.98ZM249.97,27.86v13h4.97c1.21,0,2.32-.29,3.34-.87,1.02-.58,1.83-1.37,2.42-2.36.6-.99.9-2.08.9-3.26s-.3-2.29-.9-3.28c-.6-.99-1.41-1.78-2.42-2.36-1.02-.58-2.14-.87-3.36-.87h-4.95Z"/>
    <path class="st0" d="M274.38,37.53h-8.62l-1.9,4.19h-.97l6.68-14.73h.95l6.74,14.73h-.97l-1.92-4.19ZM273.98,36.65l-3.94-8.64-3.9,8.64h7.84Z"/>
    <path class="st0" d="M289.21,27.98c1.16.65,2.08,1.55,2.75,2.68.67,1.13,1.01,2.37,1.01,3.72s-.34,2.57-1.01,3.7c-.67,1.13-1.59,2.02-2.76,2.68-1.17.65-2.44.98-3.81.98h-5.84v-14.73h5.86c1.38,0,2.65.33,3.8.98ZM280.43,27.86v13h4.97c1.21,0,2.32-.29,3.34-.87,1.02-.58,1.83-1.37,2.42-2.36.6-.99.9-2.08.9-3.26s-.3-2.29-.9-3.28c-.6-.99-1.41-1.78-2.42-2.36-1.02-.58-2.14-.87-3.36-.87h-4.95Z"/>
  </g>
  <g>
    <path class="st0" d="M162.36,46.19c1.18.63,2.1,1.5,2.75,2.61.65,1.12.98,2.39.98,3.83s-.33,2.71-1,3.83c-.67,1.12-1.6,1.99-2.79,2.61-1.19.63-2.56.94-4.09.94h-6.13v-14.75h6.26c1.5,0,2.85.31,4.03.94ZM155.41,48.06v9.15h3.01c.82,0,1.55-.19,2.2-.58.65-.39,1.16-.92,1.53-1.61.36-.69.55-1.48.55-2.36s-.19-1.68-.58-2.38c-.39-.7-.91-1.25-1.58-1.63-.67-.39-1.42-.58-2.27-.58h-2.87Z"/>
    <path class="st0" d="M179.52,48.01h-7.9v3.2h7.12v2.76h-7.12v3.27h8.14v2.76h-11.47v-14.75h11.23v2.76Z"/>
    <path class="st0" d="M197.18,57.14h-6.81l-1.18,2.87h-3.44l6.41-14.75h3.44l6.3,14.75h-3.56l-1.16-2.87ZM196.11,54.46l-2.32-5.73-2.34,5.73h4.66Z"/>
    <path class="st0" d="M212.78,48.08h-4.51v11.93h-3.33v-11.93h-4.49v-2.82h12.33v2.82Z"/>
    <path class="st0" d="M222.77,57.14h-6.81l-1.18,2.87h-3.44l6.41-14.75h3.44l6.3,14.75h-3.56l-1.16-2.87ZM221.69,54.46l-2.32-5.73-2.34,5.73h4.66Z"/>
    <path class="st0" d="M238.6,45.81c1.04.44,1.92,1.04,2.66,1.78l-1.94,2.36c-.51-.59-1.1-1.06-1.79-1.4-.69-.34-1.37-.52-2.04-.52-.83,0-1.59.2-2.28.6-.69.4-1.23.95-1.62,1.63-.39.69-.59,1.45-.59,2.3s.2,1.61.59,2.31c.39.7.93,1.24,1.62,1.64.69.4,1.45.6,2.28.6.66,0,1.33-.15,2.01-.46.68-.31,1.29-.73,1.82-1.26l1.96,2.13c-.79.82-1.71,1.46-2.77,1.93-1.06.47-2.13.71-3.19.71-1.45,0-2.76-.33-3.94-.99-1.18-.66-2.11-1.57-2.78-2.72-.67-1.15-1.01-2.43-1.01-3.84s.34-2.67,1.03-3.8c.69-1.13,1.63-2.02,2.82-2.68,1.19-.65,2.53-.98,4-.98,1.07,0,2.12.22,3.16.66Z"/>
    <path class="st0" d="M252.84,57.14h-6.81l-1.18,2.87h-3.44l6.41-14.75h3.44l6.3,14.75h-3.56l-1.16-2.87ZM251.77,54.46l-2.32-5.73-2.34,5.73h4.66Z"/>
    <path class="st0" d="M275.12,60.01h-2.99v-9.95l-3.92,8.45h-2.17l-3.92-8.45v9.95h-3.01v-14.75h3.73l4.3,9.02,4.28-9.02h3.71v14.75Z"/>
    <path class="st0" d="M288.13,57.14h-6.81l-1.18,2.87h-3.44l6.41-14.75h3.44l6.3,14.75h-3.56l-1.16-2.87ZM287.05,54.46l-2.32-5.73-2.34,5.73h4.66Z"/>
  </g>
  <g>
    <g>
      <path class="st4" d="M138.32,16c-2.74,25.95-14.59,46.75-35.71,62.13-21.07-15.39-33.08-36.19-35.87-62.13,24.9-11.1,46.76-11.1,71.59,0Z"/>
      <path class="st3" d="M102.33,7.13c-14.78,0-30.36,5.18-36.48,8.55.29,5.89,3.67,21.12,7.78,29.27,11.85,23.51,28.85,33.44,28.85,33.44,0,0,18.44-10.26,28.89-33.29,5.74-12.64,7.12-24.36,7.76-29.42-11.55-5.13-24.12-8.55-36.8-8.55ZM129.97,45.98c-9.85,21.38-27.48,31.57-27.48,31.57,0,0-19.24-13.49-28.17-33.1-3.4-7.47-5.94-14.92-7.58-28.17,6.56-2.91,20.97-8.36,35.75-8.36,12.68,0,24.45,3.55,35.68,8.36-.64,5.07-2.4,17.1-8.21,29.71Z"/>
      <g>
        <polygon class="st3" points="126.64 21.37 125.2 18.88 122.38 19.47 124.31 17.34 122.87 14.84 125.49 16.01 127.43 13.87 127.12 16.73 129.76 17.9 126.94 18.5 126.64 21.37"/>
        <polygon class="st3" points="126.64 21.37 125.2 18.88 122.38 19.47 124.31 17.34 122.87 14.84 125.49 16.01 127.43 13.87 127.12 16.73 129.76 17.9 126.94 18.5 126.64 21.37"/>
      </g>
      <g>
        <polygon class="st3" points="104.84 16.55 102.52 14.86 100.19 16.55 101.08 13.82 98.74 12.12 101.62 12.12 102.51 9.38 103.4 12.12 106.28 12.12 103.96 13.81 104.84 16.55"/>
        <polygon class="st3" points="104.84 16.55 102.52 14.86 100.19 16.55 101.08 13.82 98.74 12.12 101.62 12.12 102.51 9.38 103.4 12.12 106.28 12.12 103.96 13.81 104.84 16.55"/>
      </g>
      <g>
        <polygon class="st3" points="82.64 19.32 79.81 18.82 78.45 21.36 78.06 18.51 75.22 18.01 77.8 16.75 77.4 13.9 79.4 15.97 81.99 14.71 80.64 17.24 82.64 19.32"/>
        <polygon class="st3" points="82.64 19.32 79.81 18.82 78.45 21.36 78.06 18.51 75.22 18.01 77.8 16.75 77.4 13.9 79.4 15.97 81.99 14.71 80.64 17.24 82.64 19.32"/>
      </g>
      <g>
        <path class="st3" d="M96.95,51.05l1.02-.49h.1v3.52c0,.23,0,.38.03.44.02.06.06.1.12.13.06.03.19.05.38.05v.11h-1.57v-.11c.2,0,.32-.02.38-.05.06-.03.1-.07.12-.12.02-.05.03-.2.03-.45v-2.25c0-.3-.01-.5-.03-.58-.01-.07-.04-.12-.08-.15-.04-.03-.08-.05-.14-.05-.08,0-.18.03-.32.09l-.05-.09Z"/>
        <path class="st3" d="M102.11,53.16c-.12-.16-.36-.38-.72-.66.35-.22.58-.41.69-.57.11-.16.17-.32.17-.48,0-.23-.1-.44-.31-.62-.21-.18-.48-.27-.81-.27s-.63.1-.84.29c-.21.2-.31.43-.31.7,0,.18.05.35.14.51.1.16.31.38.64.65-.3.22-.52.42-.64.6-.12.18-.19.36-.19.55,0,.24.09.45.27.65.22.25.53.37.93.37.36,0,.66-.1.88-.31.22-.21.34-.46.34-.75,0-.23-.08-.45-.23-.66ZM100.74,51.96c-.1-.1-.18-.2-.23-.3-.05-.11-.08-.21-.08-.32,0-.16.07-.3.2-.43.13-.12.3-.18.51-.18s.38.06.5.18c.12.12.18.29.18.51,0,.16-.03.31-.1.44-.07.13-.22.3-.47.53l-.51-.42ZM101.71,54.52c-.13.12-.31.19-.53.19s-.41-.08-.55-.24c-.14-.16-.22-.37-.22-.63,0-.2.04-.38.12-.55.08-.17.21-.32.38-.47.44.35.74.63.88.85.08.12.12.25.12.4,0,.18-.07.33-.2.45Z"/>
        <path class="st3" d="M105.62,50.64l-.24.52h-1.26l-.28.56c.55.08.98.28,1.3.61.27.28.41.61.41.98,0,.22-.04.42-.13.61-.09.19-.2.35-.34.48-.13.13-.29.24-.45.32-.24.11-.48.17-.72.17s-.43-.04-.54-.13c-.11-.08-.17-.18-.17-.28,0-.06.02-.11.07-.15s.11-.07.18-.07c.05,0,.1,0,.14.02.04.02.11.06.2.13.15.11.31.16.47.16.24,0,.45-.09.63-.27.18-.18.27-.4.27-.66s-.08-.49-.24-.71c-.16-.22-.38-.39-.67-.51-.22-.09-.53-.15-.91-.16l.8-1.62h1.49Z"/>
        <path class="st3" d="M106.86,50.64h2.24v.12l-1.39,4.14h-.34l1.25-3.76h-1.15c-.23,0-.4.03-.5.08-.17.09-.31.24-.42.44l-.09-.03.4-.99Z"/>
      </g>
      <g>
        <g>
          <path class="st3" d="M99.36,25.43c-2.6,3.46-5.64,6.5-9.12,9.12l-3.42-3.42c2.57-3.48,5.61-6.52,9.12-9.12l3.42,3.42Z"/>
          <path class="st3" d="M99.36,25.43c-2.6,3.46-5.64,6.5-9.12,9.12l-3.42-3.42c2.57-3.48,5.61-6.52,9.12-9.12l3.42,3.42Z"/>
        </g>
        <path class="st3" d="M116.62,27.95c-.34-.37-.66-.71-.99-1.05-.95-1.1-2.62-2.63-5.55-4.89l-3.42,3.42c1.71,2.26,3.59,4.34,5.65,6.23,1.34,1.29,2.75,2.5,4.24,3.62.56-.32.7-.47.97-.96.02-2.75-.28-4.87-.9-6.38Z"/>
        <polygon class="st3" points="94.68 31.29 96.25 29.71 114.22 47.78 112.68 49.33 94.68 31.29"/>
        <polygon class="st3" points="101.13 38.4 102.67 39.93 93.25 49.33 91.72 47.76 101.13 38.4"/>
        <polygon class="st3" points="109.78 29.71 111.32 31.26 104.86 37.69 103.29 36.2 109.78 29.71"/>
        <rect class="st1" x="89.45" y="25.28" width="2.21" height=".81" transform="translate(7.98 70.86) rotate(-44.52)"/>
        <rect class="st1" x="115.03" y="24.44" width=".81" height="2.21" transform="translate(16.02 89.52) rotate(-45.24)"/>
      </g>
      <path class="st3" d="M102.49,18.15c-9.58,0-19.67,3.36-23.63,5.54.19,3.81,2.38,13.68,5.04,18.96,7.68,15.23,18.69,21.66,18.69,21.66,0,0,11.95-6.65,18.72-21.57,3.72-8.19,4.61-15.78,5.03-19.06-7.48-3.32-15.63-5.54-23.84-5.54ZM119.79,43.03c-6.45,13.26-17.19,19.89-17.19,19.89,0,0-8.8-6.34-14.63-15.34-4.51-6.95-6.73-14.67-7.79-23.26,4.25-1.88,12.45-5.01,22.03-5.01,8.21,0,15.63,1.94,22.91,5.05-.41,3.28-1.38,10.57-5.32,18.66Z"/>
      <polygon class="st2" points="96.95 55.42 107.97 55.42 107.71 55.87 97.3 55.87 96.95 55.42"/>
    </g>
    <g>
      <path class="st1" d="M71.41,25.61c.09-.49.34-.78.74-.98.29-.14.73-.25,1.61-.43l1.6-.31c.23-.05.33-.11.29-.32l-.06-.32s0-.05.05-.06l.15-.03s.06,0,.07.05c.01.07.06.4.16.92.1.52.19.84.2.92.01.05,0,.06-.03.07l-.17.03s-.05,0-.06-.04l-.07-.34c-.04-.19-.19-.28-.34-.27-.06,0-.53.09-.87.16l-.44.09c-.36.07-1.2.26-1.42.31-.31.07-.61.18-.81.38-.31.32-.35.77-.27,1.16.08.38.28.75.57.93.33.21.75.22,1.25.12l1.44-.28c.51-.1.9-.19,1.06-.24.17-.05.27-.19.24-.36l-.06-.3s.01-.05.04-.06l.16-.03s.05,0,.06.04c.01.07.05.38.14.83.09.46.15.67.16.73.01.06-.01.07-.03.08l-.15.03s-.07,0-.07-.03l-.05-.28c-.05-.25-.24-.23-.33-.24-.07,0-1.02.19-1.12.2-.09.02-1.27.23-1.54.27-.56.07-1.01,0-1.41-.31-.3-.22-.54-.6-.65-1.18-.07-.35-.09-.69-.04-.93Z"/>
      <path class="st1" d="M76.21,29.47c.39-.1.56-.36.5-.6l-.06-.27s.02-.05.04-.05l.17-.04s.04,0,.05.03c0,.03.02.09.04.19.02.1.05.25.11.47.06.22.11.36.13.44.02.09,0,.15-.04.21-.03.04-1.37,1.76-1.44,1.85-.07.1-1.16,1.57-1.33,1.78v.03s.79-.2.79-.2c.59-.15.91-.24,1.24-.34.26-.07.9-.27,1-.34.15-.1.21-.25.16-.43l-.05-.21s0-.04.04-.05l.17-.04s.04,0,.05.03c.02.09.06.31.17.73.1.4.16.55.19.64.01.05,0,.06-.03.07l-.17.04s-.05,0-.06-.03l-.05-.18c-.05-.18-.18-.22-.43-.16-.45.09-1.11.26-1.54.37l-2.48.64c-.09.02-.16.03-.17,0-.02-.08.04-.16.07-.19.01-.01.4-.53.81-1.07.46-.61.94-1.25.97-1.3.05-.09,1.26-1.7,1.31-1.75v-.04s-1.48.38-1.48.38c-.62.16-1.68.49-1.81.54-.25.09-.37.17-.32.34l.05.2s0,.06-.05.07l-.15.04s-.05,0-.07-.04c-.02-.07-.1-.47-.15-.65-.04-.14-.17-.59-.19-.66,0-.03,0-.04.04-.04l.17-.04s.04,0,.05.03l.06.22c.05.19.15.24.48.19.13-.02.89-.2,2.06-.5l1.13-.29Z"/>
      <path class="st1" d="M76.67,35.27c.16-.05,1.33-.43,1.42-.47.15-.06.2-.15.12-.4l-.12-.38s0-.06.02-.06l.18-.05s.04,0,.05.03c.02.08.11.42.29,1.03.18.58.26.78.29.88.01.03,0,.05-.03.06l-.16.05s-.05,0-.06-.04l-.09-.31c-.04-.13-.12-.21-.25-.17-.07.02-1.51.44-1.59.47l-.5.15c-.07.02-1.57.5-1.64.53-.2.06-.2.17-.14.38l.08.27s0,.06-.03.07l-.17.05s-.04,0-.06-.05c-.02-.08-.08-.35-.26-.91-.19-.62-.3-.9-.32-.97-.01-.03,0-.06.02-.06l.18-.05s.04,0,.06.04l.11.37c.04.13.1.26.28.24.1-.02,1.52-.43,1.87-.54l.46-.14Z"/>
      <path class="st1" d="M79.06,36.49s.05-.01.06.03c.02.06.08.28.27.78.2.54.33.82.35.88.02.06,0,.07-.02.08l-.15.05s-.06.01-.08-.03l-.11-.31c-.07-.18-.16-.25-.27-.21-.05.02-.13.05-.21.11-.22.12-.89.64-1.21.89-.22.17-1.18.95-1.52,1.24h0c.35.04,1.86.05,2.02.04.2,0,1.02-.03,1.34-.04.18,0,.31-.01.4-.05.08-.03.13-.1.07-.26l-.06-.17s0-.04.05-.05l.15-.05s.05-.01.06.02c.02.06.11.36.26.76.17.47.25.62.27.68.01.04,0,.05-.03.06l-.16.06s-.05.01-.06-.03l-.06-.17c-.08-.21-.23-.3-.42-.36-.27-.09-1.77-.12-2.08-.13-.24,0-2.58-.07-2.66-.08-.06,0-.11-.03-.12-.06-.02-.05.04-.1.11-.16.51-.42,1.78-1.48,1.98-1.65l.19-.14c.4-.32,1.22-.97,1.38-1.12.12-.12.16-.21.11-.34l-.06-.17s0-.04.03-.05l.16-.06Z"/>
      <path class="st1" d="M79.5,43.37s.39.69.44.75c.12.16.2.18.41.14.07-.01.2-.05.32-.11.03-.02.05,0,.06.02l.07.15s0,.06-.03.06c-.11.04-.61.29-.7.34-.21.11-.49.29-.61.36-.03.02-.05,0-.07-.01l-.09-.12s0-.05.03-.08c.07-.05.19-.16.25-.21.11-.1.17-.22.1-.38-.12-.3-.33-.72-.38-.82l-.38.19c-.33.17-.91.49-1.03.55-.31.17-.36.38-.29.59.04.13.11.32.19.47.05.1.22.4.3.53.07.1.27.33.49.42.1.04.71.16.9.17.04,0,.07,0,.07.05v.13s-.03.05-.08.06l-1.06.14c-.06.01-.12-.01-.16-.09-.02-.03-.08-.17-.26-.53-.19-.36-.49-.96-.98-1.9-.12-.22-.21-.39-.27-.51-.07-.12-.12-.2-.15-.26-.02-.04-.02-.06.01-.08l.16-.09s.04,0,.06.04l.13.24c.14.28.2.28.42.17l1.44-.74.6-.31c.5-.26,1.26-.67,1.31-.7.18-.12.19-.21.08-.43l-.11-.22s-.02-.05.02-.07l.16-.08s.04,0,.05.03c.07.13.16.36.37.76l.14.27c.31.6.63,1.2.94,1.8.05.1.12.21.14.24.02.03,0,.05,0,.06-.07.07-.77.77-.82.82-.02.02-.04.03-.06,0l-.1-.07s-.02-.05,0-.06c.02-.02.36-.77.38-.97.02-.17,0-.38-.07-.55l-.54-1.09-1.78.92Z"/>
      <path class="st1" d="M81.85,46.72c.43-.26.81-.48.98-.59.19-.12.25-.25.16-.4l-.14-.23s0-.05.02-.06l.15-.09s.04-.02.06.01c.03.05.12.25.42.74.2.33.54.86.6.97.29.49.38.96.3,1.31-.07.31-.27.58-.49.7-.73.44-1.21.27-1.82-.38h-.01c.03.18-.02.32-.06.41-.03.12-.38.89-.43.98-.04.06-.35.76-.37.92-.01.18.06.32.15.48.02.04,0,.06-.02.07l-.13.08s-.06.03-.08-.02c-.03-.05-.1-.21-.26-.47-.1-.17-.24-.38-.3-.46.02-.1.14-.35.19-.45.04-.09.41-.74.44-.8.03-.05.28-.58.32-.7.09-.26.16-.5-.04-.84-.03-.05-.07-.11-.13-.18l-.33.2c-.35.21-1,.61-1.08.67-.12.09-.19.2-.14.28l.22.37s.01.06-.02.07l-.13.08s-.06.03-.09-.03c-.04-.06-.11-.22-.44-.78-.32-.53-.42-.66-.46-.72-.03-.05-.01-.06.02-.07l.14-.08s.05-.03.06,0l.14.24c.08.13.18.2.34.11.59-.34,1.14-.67,1.7-1l.57-.34ZM81.59,47.6c.03.1.07.17.13.28.64,1.07,1.5.83,1.74.69.27-.16.45-.44.49-.69.04-.34-.02-.65-.31-1.14-.04-.07-.1-.14-.17-.17-.05-.02-.14-.01-.23.04l-1.66.99Z"/>
      <path class="st1" d="M82.13,52.58c0-.1,0-.15-.02-.18-.02-.03-.08-.03-.16-.02-.09,0-.11-.02-.14-.05-.02-.03-.01-.08.06-.11.16-.07.91-.51,1.09-.6.04-.02.05,0,.06.02l.05.09s.01.04-.02.06c-.18.13-.36.27-.52.65-.15.35-.09.77.12,1.08.23.34.73.63,1.24.28.58-.4.51-.96.36-1.52-.06-.22-.19-.72-.11-1.14.06-.31.26-.59.63-.85.28-.19.68-.21.96-.14.33.07.6.3.81.61.22.32.29.64.31.76,0,.07.03.09.08.1l.12.03s.06.02.08.05c.02.03-.01.08-.06.11-.2.13-.72.6-.84.69-.03.02-.04.02-.06,0l-.06-.06s-.02-.03,0-.05c.13-.16.3-.38.39-.78.06-.26,0-.52-.18-.78-.34-.5-.84-.43-1.13-.23-.16.11-.32.27-.37.51-.05.28.04.68.1.88.14.47.26.86.15,1.23-.07.27-.23.52-.6.77-.67.46-1.51.44-2.02-.31-.27-.4-.34-.75-.32-1.1Z"/>
      <path class="st1" d="M86.49,54.24c.13-.1,1.1-.85,1.18-.92.12-.11.14-.2-.02-.41l-.24-.32s-.02-.05,0-.07l.15-.11s.04,0,.06.01c.05.07.24.36.62.87.36.49.51.65.57.73.02.03.01.05,0,.07l-.14.1s-.05.01-.07-.02l-.19-.26c-.08-.11-.19-.16-.3-.08-.05.04-1.28.93-1.34.98l-.42.32c-.06.04-1.31,1-1.37,1.05-.17.13-.14.23,0,.4l.17.22s.02.05,0,.07l-.14.11s-.05,0-.07-.03c-.05-.07-.2-.3-.55-.77-.39-.52-.58-.74-.63-.8-.02-.03-.02-.05,0-.07l.15-.11s.04,0,.07.02l.23.31c.08.11.18.21.34.13.09-.05,1.28-.92,1.57-1.14l.38-.29Z"/>
      <path class="st1" d="M88.38,56.27c.14-.11.86-.76.94-.84.11-.12.08-.21-.04-.35l-.24-.29s-.03-.05,0-.07l.14-.12s.04,0,.06.01c.06.07.24.31.63.78.11.14.57.64.67.77.57.67.97,1.3.96,2.09,0,.59-.24,1.19-.84,1.7-.6.51-1.14.67-1.81.64-.98-.03-1.59-.75-1.93-1.16-.28-.33-.6-.74-.8-.97-.38-.45-.58-.65-.64-.72-.02-.03-.02-.05,0-.07l.14-.11s.04-.01.07.02l.3.35c.08.1.17.12.27.06.12-.08,1.32-1.05,1.72-1.39l.39-.33ZM88.28,57.18c-.07.06-.95.81-1.27,1.09-.1.09-.17.18-.22.34-.04.18.08.43.3.7.45.53,1.05.77,1.6.75.46-.01,1.02-.21,1.5-.61.41-.34.73-.92.79-1.4.07-.52-.12-1.16-.61-1.73-.1-.12-.28-.33-.4-.37-.11-.03-.21.02-.33.11-.22.18-.91.76-.99.83l-.37.31Z"/>
      <path class="st1" d="M91.36,61.55c-.17.07-1.18.53-1.3.6-.04.03-.1.07-.12.09-.07.07-.05.16.05.27l.22.23s.04.06.01.08l-.11.11s-.06.03-.08,0c-.07-.07-.25-.28-.53-.57-.35-.36-.47-.45-.54-.52-.02-.02-.02-.04,0-.07l.12-.11s.05-.01.07,0l.17.17c.14.15.28.15.5.06.11-.04,1.37-.57,1.9-.82.13-.06,1.57-.69,1.74-.78.06-.03.15-.07.17-.16,0-.03.01-.08.03-.1.01-.01.04-.02.09,0,.16.11.52.18.64.17.05,0,.08,0,.11.02.03.03,0,.07-.03.14-.22.39-.94,1.85-1.16,2.24-.27.49-.87,1.69-.95,1.9-.08.24-.01.43.1.55l.16.16s.02.05,0,.07l-.12.12s-.05.02-.08-.01c-.09-.09-.17-.21-.56-.6-.4-.41-.58-.56-.69-.68-.02-.02-.02-.05,0-.08l.11-.11s.05-.02.08.01l.12.12c.13.14.23.13.33-.03.14-.21.57-1.02.7-1.28l-1.17-1.2ZM92.66,62.53c.1-.19.94-1.78.99-1.87.02-.05.04-.09.03-.11-.02-.02-.07,0-.13.02-.09.04-1.79.8-1.95.88l1.06,1.08Z"/>
      <path class="st1" d="M95.72,64.13c.12-.13.74-.88.8-.98.09-.14.04-.22-.1-.34l-.28-.25s-.04-.04-.01-.07l.12-.14s.04-.01.06,0c.07.06.28.27.75.67.13.12.67.55.78.65.67.58,1.16,1.14,1.28,1.92.09.58-.05,1.22-.56,1.82-.51.6-1.02.84-1.69.92-.97.12-1.69-.5-2.08-.84-.33-.28-.71-.64-.94-.84-.45-.39-.67-.55-.74-.61-.03-.02-.03-.04,0-.07l.12-.13s.04-.02.07,0l.35.3c.1.09.19.09.27.02.11-.09,1.14-1.24,1.48-1.65l.34-.39ZM95.76,65.04c-.06.07-.81.95-1.08,1.28-.09.1-.14.2-.16.37-.01.18.15.42.41.64.53.46,1.15.6,1.7.49.45-.08.98-.37,1.38-.84.35-.4.57-1.02.56-1.51-.01-.53-.3-1.12-.87-1.62-.11-.1-.33-.28-.46-.31-.11-.02-.2.05-.31.16-.19.21-.78.89-.85.97l-.32.37Z"/>
    </g>
    <g>
      <path class="st1" d="M107.06,65.88c-.11-.14-.74-.88-.83-.96-.12-.11-.21-.08-.35.04l-.29.24s-.05.03-.07,0l-.12-.14s0-.04.02-.06c.07-.06.32-.23.79-.62.14-.11.65-.56.78-.66.68-.56,1.32-.94,2.11-.93.59.02,1.19.26,1.69.87.5.61.65,1.15.61,1.82-.05.98-.78,1.57-1.19,1.9-.33.27-.75.58-.99.78-.46.38-.66.56-.73.62-.03.02-.05.02-.07,0l-.11-.14s0-.04.02-.07l.35-.29c.1-.08.12-.17.07-.27-.07-.12-1.03-1.33-1.36-1.75l-.32-.4ZM107.97,66c.06.07.8.96,1.07,1.29.09.11.18.17.33.22.18.04.44-.07.7-.29.54-.44.79-1.03.78-1.59,0-.46-.19-1.03-.59-1.51-.34-.41-.91-.74-1.39-.82-.52-.08-1.16.1-1.74.57-.12.1-.33.27-.38.4-.04.11.01.21.1.33.18.23.74.92.81,1.01l.31.38Z"/>
      <path class="st1" d="M112.09,62.24s.55-.57.59-.63c.12-.16.12-.24.02-.44-.03-.06-.11-.18-.19-.28-.02-.02-.02-.05,0-.07l.13-.11s.05-.01.07.01c.07.1.46.5.53.57.17.17.41.39.52.48.02.02.02.04,0,.07l-.09.12s-.04.02-.08,0c-.07-.05-.21-.14-.28-.18-.13-.07-.25-.1-.4.01-.25.2-.59.53-.67.6l.3.3c.26.27.73.73.82.83.25.25.47.23.65.11.12-.08.27-.2.4-.32.08-.08.32-.32.42-.43.07-.09.24-.35.26-.59.01-.11-.06-.73-.1-.91,0-.04-.01-.07.03-.09l.12-.03s.05,0,.08.06l.44.97c.03.06.02.12-.04.18-.02.02-.14.12-.44.4-.29.29-.78.74-1.54,1.48-.18.18-.31.31-.41.41-.1.11-.16.17-.2.21-.03.03-.05.03-.08,0l-.13-.13s0-.04.02-.07l.2-.19c.23-.22.21-.27.04-.45l-1.13-1.16-.47-.48c-.4-.41-1-1.01-1.05-1.06-.17-.14-.25-.12-.44.05l-.18.17s-.04.03-.07,0l-.13-.13s-.01-.03.01-.06c.11-.1.29-.26.62-.57l.22-.21c.49-.47.97-.95,1.45-1.42.08-.08.16-.18.19-.2.02-.02.04-.02.06-.01.09.05.95.51,1.02.55.02.02.04.03.03.06l-.04.11s-.04.03-.05.02c-.03-.01-.84-.12-1.03-.08-.17.03-.36.11-.5.23l-.89.83,1.39,1.44Z"/>
      <path class="st1" d="M117.26,57.83c.09.16.65,1.11.74,1.23.03.04.08.09.1.11.07.06.17.03.26-.08l.2-.25s.05-.04.08-.02l.12.1s.04.06.01.08c-.06.07-.25.28-.51.59-.32.39-.4.52-.46.59-.02.03-.04.03-.07,0l-.13-.1s-.02-.05,0-.07l.15-.19c.13-.16.12-.29,0-.51-.05-.11-.72-1.29-1.03-1.8-.08-.12-.86-1.48-.97-1.65-.04-.06-.09-.14-.18-.15-.03,0-.08,0-.1-.02-.02-.01-.03-.04,0-.09.09-.17.12-.54.1-.66,0-.05-.01-.08,0-.11.03-.03.07-.02.14.02.42.17,1.94.73,2.36.91.51.22,1.78.68,1.99.73.25.05.42-.03.53-.16l.14-.17s.05-.03.07-.01l.13.11s.02.05,0,.08c-.08.1-.19.19-.54.62-.36.44-.5.64-.6.76-.02.03-.05.03-.08,0l-.12-.1s-.02-.05,0-.08l.11-.13c.12-.15.11-.24-.07-.32-.23-.11-1.08-.45-1.35-.55l-1.07,1.3ZM118.08,56.43c-.2-.08-1.87-.74-1.97-.78-.05-.01-.1-.03-.11-.02-.02.02,0,.07.03.12.05.08.99,1.7,1.09,1.84l.96-1.17Z"/>
      <path class="st1" d="M118.42,51.91l-.1.14c-.13.18-.46.67-.55.93-.1.31.18.75.3.95.02.03.01.05-.01.08l-.1.08s-.03.03-.06,0c-.16-.2-.75-.9-.81-.95-.07-.06-.07-.1-.05-.12.02-.03.04-.04.07-.05l.1-.04c.14-.05.2-.09.32-.25.22-.29.4-.51.77-1.04l.19-.27c.43-.61.57-.87.75-1.15.08-.13.11-.21.12-.35v-.15s.02-.06.03-.08c.02-.03.04-.03.12.01.08.04.85.41,1.12.54.03.01.04.03.02.07l-.04.11s-.02.03-.07.02c-.14-.03-.69-.16-.91-.04-.2.11-.58.63-.77.91l-.11.16,1.6,1.11c.08.05,1.65,1.15,1.75,1.21.15.09.26.1.36-.03l.25-.35c.04-.05.06-.04.1-.02l.12.08s.04.04,0,.09c-.04.06-.18.22-.56.78-.37.54-.52.79-.58.87-.03.04-.06.03-.09.01l-.11-.07s-.05-.04-.03-.08l.27-.38c.08-.11.06-.23,0-.28-.15-.13-1.88-1.33-1.98-1.4l-1.44-1Z"/>
      <path class="st1" d="M122.9,50c.11.15.82.99.93,1.1.04.03.09.08.12.09.08.05.17,0,.25-.13l.16-.28s.05-.05.08-.04l.14.08s.04.05.03.08c-.05.08-.21.31-.41.66-.25.43-.31.57-.36.65-.02.03-.04.03-.07.01l-.14-.08s-.03-.05-.01-.07l.12-.21c.1-.18.07-.31-.07-.5-.07-.1-.91-1.16-1.3-1.62-.09-.11-1.08-1.33-1.21-1.47-.05-.05-.11-.13-.2-.12-.03,0-.08.01-.1,0-.02-.01-.03-.04-.02-.08.06-.19.04-.55,0-.66-.01-.05-.03-.08,0-.11.02-.04.06-.03.14,0,.44.1,2.03.41,2.47.52.54.13,1.86.39,2.08.41.25.01.41-.1.5-.25l.11-.2s.05-.04.07-.02l.15.09s.03.04,0,.08c-.06.11-.15.22-.43.7-.29.49-.39.71-.47.84-.02.03-.05.04-.08.02l-.14-.08s-.03-.04-.01-.08l.09-.15c.1-.17.07-.25-.12-.31-.24-.08-1.14-.28-1.42-.33l-.85,1.45ZM123.5,48.5c-.21-.05-1.96-.43-2.07-.45-.05,0-.1-.02-.11,0-.01.02.01.07.05.12.06.07,1.24,1.52,1.37,1.64l.76-1.31Z"/>
      <path class="st1" d="M126.38,46.58c-.63.25-1.45.12-2.04-.16-.57-.27-1.08-.74-1.34-1.41-.18-.47-.21-1.17.11-1.84.27-.56.7-.93.93-1.09.09-.06.1-.09.06-.12l-.16-.13s-.03-.04,0-.1c.03-.06.04-.06.13-.02.12.06,1.08.36,1.27.41.03,0,.06.03.05.05l-.02.1s-.02.04-.08.04c-.25-.01-.61-.02-1,.12-.39.13-.75.36-.99.85-.53,1.11.25,2.02,1.15,2.44.36.17,1.11.39,1.87.16.67-.2.89-.53,1.08-.94.33-.7.21-1.42-.06-1.9-.02-.03-.02-.05,0-.06l.1-.05s.04-.02.06.01c.36.63.58,1.46.16,2.33-.35.73-.8,1.08-1.31,1.29Z"/>
      <path class="st1" d="M127.45,40.83c.14.12.97.84,1.1.93.04.02.1.06.13.07.09.03.17-.02.22-.16l.11-.3s.04-.06.07-.05l.15.06s.05.04.04.07c-.03.09-.15.34-.29.72-.18.47-.21.61-.24.7-.01.03-.03.04-.07.03l-.15-.06s-.04-.04-.03-.07l.08-.22c.07-.19.02-.32-.15-.48-.09-.08-1.09-1-1.55-1.38-.11-.09-1.29-1.13-1.44-1.25-.06-.04-.13-.11-.22-.09-.03,0-.07.02-.1.01-.02,0-.04-.03-.04-.08.03-.19-.06-.55-.12-.65-.02-.04-.04-.07-.03-.11.01-.04.06-.04.14-.03.45.03,2.07.07,2.52.11.55.04,1.9.08,2.12.06.25-.03.39-.17.45-.33l.08-.21s.04-.04.06-.03l.16.06s.04.04.02.08c-.04.12-.11.24-.31.76-.2.53-.27.76-.32.91-.01.03-.04.04-.08.03l-.15-.06s-.04-.04-.02-.07l.06-.16c.07-.18.03-.26-.17-.28-.25-.04-1.17-.08-1.46-.09l-.59,1.57ZM127.78,39.25c-.21-.01-2.01-.1-2.12-.11-.05,0-.1,0-.11.02,0,.03.03.07.07.11.07.06,1.48,1.29,1.62,1.39l.53-1.41Z"/>
      <path class="st1" d="M130.58,33.97c-.07-.12-1.47-1.21-1.54-1.29-.08-.07-1.43-1.22-1.56-1.27-.07-.03-.06-.11-.04-.17.24-.88.28-1.11.3-1.18,0-.03.03-.03.06-.03l.15.04s.06.02.04.07l-.08.29c-.05.2.06.25.21.29.19.05,1.13.33,1.57.45l.46.13c.33.09,1.4.37,1.53.4.25.07.37.04.42-.13l.11-.39s.03-.04.06-.03l.15.04s.06.02.04.08c-.02.08-.07.19-.27.92-.17.61-.22.87-.24.95-.01.05-.03.05-.07.04l-.15-.04s-.04-.02-.03-.07l.12-.45c.03-.11,0-.18-.19-.25-.08-.03-1.22-.35-1.71-.49l-.42-.12c-.43-.12-1.61-.44-1.67-.44h0c.07.1,1.88,1.61,1.94,1.66.07.06,1.55,1.26,1.6,1.3.05.04.14.12.12.18-.01.04-.07.06-.15.07-.05,0-2.37.28-2.46.29-.34.04-1.98.23-2.08.3.09.05,1.75.53,1.83.55.08.02,1.47.41,1.7.46.38.07.51.04.56-.17l.09-.33s.03-.04.06-.03l.16.05s.04.02.03.07c-.02.07-.09.25-.24.79-.15.56-.2.8-.22.86-.01.05-.02.06-.08.04l-.16-.04s-.04-.02-.03-.05l.1-.35c.07-.25-.09-.36-.3-.46-.45-.21-2.13-.69-2.25-.73-.09-.03-1.09-.3-1.28-.35-.15-.04-.24-.07-.32.2l-.11.4s-.03.04-.06.03l-.17-.05s-.04-.02-.03-.06c.02-.07.09-.24.24-.8.09-.31.11-.49.14-.57.03-.1.06-.13.16-.14l3.92-.49Z"/>
      <path class="st1" d="M131.05,28.56c.16.1,1.11.66,1.24.72.05.02.11.04.14.05.09.02.16-.05.19-.2l.06-.32s.03-.06.06-.06l.15.03s.06.03.05.06c-.02.09-.09.37-.16.76-.09.49-.1.64-.12.74,0,.03-.02.04-.06.04l-.16-.03s-.04-.04-.04-.06l.04-.24c.04-.2-.04-.31-.24-.45-.1-.07-1.25-.79-1.76-1.09-.13-.07-1.47-.89-1.64-.98-.06-.03-.14-.08-.23-.05-.03.01-.07.04-.1.03-.02,0-.04-.02-.05-.07,0-.2-.15-.53-.23-.62-.03-.04-.05-.07-.04-.1,0-.04.05-.05.13-.05.45-.05,2.05-.29,2.51-.33.55-.06,1.89-.26,2.1-.31.24-.07.36-.23.39-.4l.04-.22s.03-.05.06-.04l.17.03s.04.03.03.07c-.02.12-.07.26-.17.8-.11.56-.13.8-.16.95,0,.03-.03.05-.07.04l-.15-.03s-.04-.03-.04-.07l.03-.17c.04-.19-.02-.26-.22-.25-.25,0-1.16.12-1.45.16l-.31,1.65ZM131.1,26.94c-.21.02-2,.25-2.1.26-.05.01-.1.02-.1.04,0,.03.04.06.09.09.08.05,1.68,1.01,1.84,1.09l.28-1.48Z"/>
    </g>
  </g>
  <metadata>
    <sfw xmlns="http://ns.adobe.com/SaveForWeb/1.0/">
      <slices/>
      <sliceSourceBounds x="65.85" y="-78.39" width="227.11" height="71.27" bottomLeftOrigin="true"/>
    </sfw>
  </metadata>
</svg>