<svg width="20" height="20" viewBox="0 0 20 20" fill="none" xmlns="http://www.w3.org/2000/svg">
<g id="Vector">
<path id="Vector_2" d="M20 9.99964C20 15.5664 15.567 19.9993 10 19.9993C4.433 19.9993 0 15.5664 0 9.99964C0 4.43283 4.433 0 10 0C15.567 0 20 4.43283 20 9.99964ZM1.95879 9.99964C1.95879 14.4325 5.56702 18.0406 10 18.0406C14.433 18.0406 18.0412 14.4325 18.0412 9.99964C18.0412 5.56681 14.433 1.95869 10 1.95869C5.56702 1.95869 1.95879 5.56681 1.95879 9.99964ZM13.1959 9.99964C13.1959 11.7522 11.7526 13.1954 10 13.1954C8.24743 13.1954 6.80412 11.7522 6.80412 9.99964C6.80412 8.24712 8.24743 6.80388 10 6.80388C11.7526 6.80388 13.1959 8.24712 13.1959 9.99964Z" fill="#2D4EA2"/>
</g>
</svg>
